<svg xmlns:inkscape="http://www.inkscape.org/namespaces/inkscape" xmlns:sodipodi="http://sodipodi.sourceforge.net/DTD/sodipodi-0.dtd" xmlns="http://www.w3.org/2000/svg" xmlns:svg="http://www.w3.org/2000/svg" version="1.1" id="svg5" sodipodi:docname="logo_DEP_DEL_AGUA_vectorial.cdr" viewBox="180.53 95.49 281.05 327.35">
  <defs id="defs5"/>
  <sodipodi:namedview id="namedview5" pagecolor="#ffffff" bordercolor="#000000" borderopacity="0.25" inkscape:showpageshadow="2" inkscape:pageopacity="0.0" inkscape:pagecheckerboard="0" inkscape:deskcolor="#d1d1d1" inkscape:document-units="pt"/>
  <g id="Layer1000">
    <path d="m 278.1735,168.0588 c -24.5591,65.199 -0.3839,124.5964 50.3729,171.7387 H 276.1846 C 248.3511,290.9343 243.0699,237.573 278.1735,168.0588 Z" style="fill:#12a2cb;fill-rule:evenodd" id="path1"/>
    <path d="m 295.8515,214.9435 c 10.5703,78.6443 79.6826,115.7986 165.7362,124.854 h -110.046 c -33.1018,-28.2483 -54.1831,-67.2497 -55.6902,-124.854 z" style="fill:#c2dee6;fill-rule:evenodd" id="path2"/>
    <g id="Layer1001">
      <path d="m 186.3281,376.6103 c 0.1585,-0.043 0.4771,-0.1007 0.9643,-0.1859 0.9644,-0.1639 1.5945,-0.3865 1.8913,-0.6676 0.1905,-0.1749 0.3068,-0.5138 0.3599,-1.0065 0.011,-0.1273 0.0477,-1.7062 0.1062,-4.7367 l -0.0156,-1.7054 0.0156,-2.0661 -0.0585,-5.2927 0.0164,-0.62 c 0,-0.2702 -0.0742,-0.4771 -0.2171,-0.62 -0.0742,-0.0742 -0.2757,-0.1117 -0.6099,-0.1117 -0.2647,0 -0.577,0.032 -0.9268,0.0961 -0.4561,0.0211 -0.8691,0.0632 -1.2291,0.1218 -0.064,0.0101 -0.1593,0.0265 -0.2967,0.0476 l -0.0157,-1.3673 c 0.6146,-0.196 1.4884,-0.3865 2.6276,-0.5723 1.8803,-0.3124 4.201,-0.4662 6.9512,-0.4662 2.2989,0 3.9785,0.1273 5.0436,0.3873 1.6156,0.4022 2.9298,1.0065 3.9418,1.8007 1.3563,1.0651 2.373,2.2996 3.0515,3.7036 0.6778,1.3985 1.0167,2.9298 1.0167,4.5828 0,2.0927 -0.4552,3.8832 -1.3665,5.3825 -0.9112,1.4945 -2.22,2.6916 -3.9261,3.5919 -1.2025,0.6411 -2.8291,0.9597 -4.8898,0.9597 l -3.1788,-0.1382 -0.9324,-0.0476 -1.2611,0.032 -0.3709,-0.032 -1.3032,0.032 -1.7218,-0.0164 c -0.0633,0 -0.588,0.0375 -1.5844,0.1116 -0.3279,0.0211 -0.7676,0.0367 -1.3032,0.0477 -0.3335,0 -0.5771,0.005 -0.7465,0.0109 -0.0211,-0.2225 -0.032,-0.6465 -0.032,-1.2556 z m 7.5282,-17.2874 c -0.032,0.3178 -0.0422,0.545 -0.0422,0.6778 l 0.0422,2.6385 -0.032,2.2996 c 0.032,0.7465 0.0484,1.3985 0.0484,1.9545 l -0.0164,1.4782 0.032,2.4636 -0.032,1.5203 c 0,1.4204 0.2647,2.3839 0.7949,2.8876 0.7629,0.7262 1.8171,1.0862 3.1625,1.0862 1.0284,0 1.7804,-0.0953 2.2676,-0.2913 1.0175,-0.392 1.8178,-0.9167 2.416,-1.5687 0.5934,-0.6513 1.044,-1.5735 1.3563,-2.7705 0.3124,-1.1971 0.4662,-2.4316 0.4662,-3.7036 0,-2.0873 -0.3334,-3.7981 -1.0011,-5.1232 -0.6676,-1.3244 -1.5788,-2.32 -2.7392,-2.9876 -1.1604,-0.6676 -2.4902,-1.0018 -3.9894,-1.0018 -1.0542,0 -1.9654,0.1483 -2.7338,0.4404 z m 17.1547,-1.5422 c 0.588,0.032 1.1018,0.0796 1.5367,0.1429 0.816,0.1116 1.764,0.1702 2.8392,0.1702 0.3764,0 1.3298,-0.032 2.872,-0.096 2.3098,-0.0898 4.3915,-0.1375 6.257,-0.1375 l 2.808,-0.032 c 0.6301,0 1.5625,0.0797 2.797,0.2335 0.1859,0.2061 0.2756,0.4872 0.2756,0.8371 v 3.1999 l 0.0321,0.6356 c 0,0.0633 -0.005,0.1539 -0.0164,0.2811 l -0.6357,0.0313 c -0.0843,0 -0.2592,-0.0102 -0.5247,-0.0313 -0.0953,-0.2069 -0.2225,-0.5138 -0.3756,-0.9167 l -0.62,-1.1018 c -0.2389,-0.4661 -0.5669,-0.9432 -0.9909,-1.4305 -0.2592,-0.0687 -0.5934,-0.1117 -0.9956,-0.1218 -0.1062,-0.0109 -0.4193,-0.0375 -0.9487,-0.0797 -0.9589,-0.0796 -1.9975,-0.1218 -3.1047,-0.1218 -1.2611,0 -2.3894,0.0211 -3.3803,0.0633 -0.0313,0.2545 -0.0477,1.2767 -0.0477,3.057 l 0.032,2.6065 v 1.9553 c 0.2593,0.032 0.4818,0.0476 0.6677,0.0476 1.849,0 3.1679,-0.0374 3.9574,-0.1116 0.7839,-0.0687 1.272,-0.1695 1.457,-0.3014 0.1851,-0.1273 0.3553,-0.3553 0.4982,-0.6731 0.0953,-0.228 0.2757,-0.9909 0.5404,-2.2833 l 0.2061,-0.0164 0.8957,0.0164 c 0.0421,0.9214 0.064,1.6211 0.064,2.0982 0,1.0854 -0.005,1.785 -0.0219,2.0927 -0.0156,0.3123 -0.0265,0.556 -0.0265,0.7309 0,0.2803 0.0164,0.7254 0.0484,1.3399 0.0312,0.6146 0.0476,1.0761 0.0476,1.3775 v 0.3396 h -1.1025 c -0.0422,-0.1647 -0.1164,-0.5091 -0.2327,-1.0229 -0.207,-0.9643 -0.392,-1.5625 -0.5568,-1.8014 -0.1265,-0.1851 -0.3334,-0.328 -0.6247,-0.4186 -0.2069,-0.0741 -0.9698,-0.1108 -2.2941,-0.1108 -1.5633,0 -2.7393,0.0421 -3.5233,0.1272 -0.0109,0.2647 -0.0156,0.4451 -0.0156,0.524 0,1.2345 0.0211,2.2575 0.0633,3.0734 l -0.032,3.353 c 0,0.3928 0.1382,0.663 0.4185,0.8059 0.424,0.2171 1.7218,0.328 3.8941,0.328 1.4415,0 2.6596,-0.1109 3.6662,-0.328 0.6887,-0.1538 1.3032,-0.4982 1.8279,-1.0385 0.7044,-0.6942 1.2877,-1.6641 1.7538,-2.9197 0.3233,-0.0257 0.588,-0.0421 0.795,-0.0421 0.1108,0 0.2803,0.005 0.5083,0.0109 -0.0265,0.2592 -0.0531,0.4763 -0.0742,0.6567 l -0.0952,0.4607 -0.5724,2.9352 -0.2811,1.7695 c -0.6723,0.032 -1.2025,0.0476 -1.6,0.0476 -0.5771,0 -2.1239,-0.0523 -4.6406,-0.153 -1.7695,-0.0742 -3.8996,-0.1117 -6.3945,-0.1117 -1.24,0 -2.7658,0.0531 -4.5774,0.1538 h -0.652 l -1.8811,0.0633 v -1.0698 c 0.2015,-0.0531 0.5935,-0.1117 1.1815,-0.1695 1.076,-0.1272 1.8225,-0.292 2.2363,-0.4981 0.1109,-0.3022 0.1695,-0.6786 0.1695,-1.1338 0,-0.175 -0.005,-0.4772 -0.0164,-0.9012 l 0.0164,-0.4817 -0.0476,-5.8487 0.0156,-1.7538 -0.0742,-2.4847 0.0156,-1.7538 -0.1429,-1.9232 c 0,-0.0531 -0.0101,-0.1585 -0.032,-0.3124 -0.1,-0.1116 -0.2538,-0.1858 -0.4607,-0.217 -0.1164,-0.0219 -0.2702,-0.0531 -0.4662,-0.0906 -0.5934,-0.1273 -1.1603,-0.2015 -1.7108,-0.2171 -0.196,-0.0109 -0.424,-0.032 -0.6841,-0.0633 z m 22.6488,1.044 -0.0157,-1.1815 3.7083,0.2327 1.6586,-0.0156 h 0.609 c 0.6302,0 1.6156,-0.0375 2.9618,-0.1062 0.7676,-0.0531 1.2447,-0.0788 1.4462,-0.0788 1.3032,0 2.2832,0.0741 2.9454,0.217 1.0174,0.2062 1.8178,0.5404 2.416,0.9902 0.5934,0.456 1.1072,1.1072 1.5367,1.9498 0.4287,0.8425 0.6411,1.6265 0.6411,2.3527 0,1.8014 -0.5669,3.2632 -1.6953,4.3869 -1.1338,1.1228 -2.5643,1.6843 -4.2916,1.6843 -0.6044,0 -1.1759,-0.0742 -1.7163,-0.2226 -0.5458,-0.1429 -1.0549,-0.36 -1.5313,-0.6512 -0.0531,-0.2967 -0.0741,-0.7106 -0.0741,-1.24 0.2436,0.0211 0.4716,0.0375 0.6723,0.0476 0.2014,0.0109 0.3818,0.0156 0.5356,0.0156 0.8793,0 1.6211,-0.2436 2.22,-0.7309 0.7942,-0.6301 1.1971,-1.653 1.1971,-3.0726 0,-1.012 -0.1749,-1.8436 -0.5193,-2.4902 -0.3498,-0.6465 -0.7629,-1.0862 -1.2345,-1.3142 -0.6622,-0.3068 -1.4095,-0.4661 -2.2356,-0.4661 -0.7785,0 -1.3298,0.1171 -1.6632,0.3443 -0.0797,0.1328 -0.1437,0.2655 -0.1859,0.3873 l 0.1117,7.3112 -0.032,0.62 0.0476,0.6512 c 0.005,0.1484 0.0101,0.36 0.0101,0.6357 v 1.2767 l 0.0164,2.0294 -0.0265,2.4214 c 0,0.3444 0.0265,0.8051 0.0898,1.3829 l 3.0891,0.3866 c 0.0421,0.2491 0.0632,0.4451 0.0632,0.5934 0,0.1531 -0.0265,0.3709 -0.0796,0.6513 -0.2593,0.0429 -0.4553,0.0585 -0.588,0.0585 -0.3233,0 -0.9269,-0.0375 -1.8171,-0.1163 -0.8902,-0.0742 -1.9022,-0.1172 -3.0406,-0.1172 -1.2822,0 -2.5066,0.0852 -3.6662,0.2491 -0.196,0.0321 -0.5036,0.0586 -0.9276,0.0797 -0.0422,-0.3022 -0.0633,-0.5248 -0.0633,-0.6677 0,-0.0952 0.0102,-0.2381 0.0313,-0.4341 l 0.9487,-0.3131 c 0.652,-0.196 1.2135,-0.4342 1.6898,-0.7098 0.0906,-0.3014 0.1382,-0.5771 0.1382,-0.8262 0,-0.1007 -0.005,-0.2225 -0.0164,-0.3553 -0.0102,-0.3232 -0.0156,-0.773 -0.0156,-1.3509 l -0.0422,-4.3603 -0.1749,-4.9217 c -0.0687,-2.3363 -0.1273,-3.6029 -0.1695,-3.7879 -0.0741,-0.2968 -0.1959,-0.5349 -0.3709,-0.7044 -0.1749,-0.1702 -0.4716,-0.292 -0.8847,-0.3662 -0.8581,-0.1429 -1.4305,-0.2647 -1.7061,-0.3545 z m 16.0466,19.0412 0.032,-1.0549 c 0.196,-0.0578 0.5404,-0.1375 1.0385,-0.2327 0.795,-0.1539 1.2822,-0.2913 1.4517,-0.4186 0.1694,-0.1218 0.381,-0.424 0.6301,-0.9011 l 3.1312,-8.2115 3.6826,-9.6529 c 0.3389,0.0101 0.6676,0.0156 0.9745,0.0156 h 0.6996 l 0.1375,0.2811 2.7017,6.3944 c 0.6099,1.3564 1.1604,2.6706 1.6476,3.9527 0.4881,1.2767 0.9066,2.32 1.2557,3.1258 0.2069,0.4873 0.4927,1.2127 0.8534,2.188 0.1851,0.5294 0.4717,1.1916 0.8527,1.9865 0.207,0.4349 0.3655,0.6887 0.4662,0.7574 0.1858,0.1593 0.4927,0.26 0.9113,0.3131 0.4185,0.0531 0.8691,0.1695 1.3563,0.3545 0.0531,0.3444 0.0797,0.5989 0.0797,0.7629 0,0.0742 -0.005,0.1859 -0.0157,0.3397 -0.7683,0 -1.6109,-0.032 -2.5331,-0.1062 -0.9214,-0.0742 -1.7483,-0.1117 -2.4846,-0.1117 -0.816,0 -1.404,0.011 -1.7695,0.0321 l -2.6385,0.1429 -0.7574,0.032 c 0,-0.3655 0.0156,-0.7098 0.0476,-1.044 l 1.7218,-0.3709 c 0.5138,-0.132 0.816,-0.2382 0.9011,-0.3124 0.1007,-0.1007 0.1531,-0.2225 0.1531,-0.3545 0,-0.1327 -0.0266,-0.2756 -0.0789,-0.4185 l -0.62,-1.5211 -1.2244,-3.0407 -5.9283,-0.0164 c -0.217,0.4927 -0.6676,1.7116 -1.3508,3.645 -0.196,0.5513 -0.2968,0.9222 -0.2968,1.1182 0,0.2702 0.0742,0.4607 0.2171,0.5724 0.2389,0.2015 0.6942,0.3389 1.3673,0.424 0.0898,0.0156 0.4607,0.0742 1.1018,0.1694 0.0109,0.371 0.0156,0.6302 0.0156,0.7731 0,0.1163 -0.0102,0.2335 -0.0312,0.3608 -0.6411,0 -2.1724,-0.0906 -4.5938,-0.2655 l -0.6356,0.1062 c -0.7684,0.1272 -1.4993,0.1858 -2.188,0.1858 z m 7.2955,-8.7206 c 2.4215,0.0312 3.8465,0.0476 4.2807,0.0476 l 0.392,-0.0164 c -0.3124,-0.9214 -0.7153,-1.9966 -1.2127,-3.221 -0.4982,-1.2236 -0.9011,-2.1614 -1.208,-2.8025 z m 15.2744,7.7773 c 0.2702,-0.1483 0.6676,-0.2545 1.197,-0.3178 0.5248,-0.0687 1.0019,-0.1804 1.4259,-0.3342 0.0523,-0.2061 0.0843,-0.36 0.0953,-0.4498 0.021,-0.1483 0.0312,-0.641 0.0312,-1.4891 l -0.0156,-3.4646 0.0585,-1.86 -0.0265,-1.4462 0.0265,-0.8371 c 0.0313,-1.1283 0.0477,-2.1825 0.0477,-3.1679 0,-2.1513 -0.0266,-3.5287 -0.0742,-4.1276 l -0.9167,-0.1851 c -0.8371,-0.0531 -1.3986,-0.1062 -1.6797,-0.1538 l -0.032,-0.9323 0.0641,-0.1695 c 0.5192,-0.0851 0.9955,-0.1273 1.4305,-0.1273 0.2381,0 0.7153,-0.005 1.4407,-0.0156 0.7473,0.0633 1.1502,0.0953 1.2134,0.0953 l 0.8215,-0.0477 1.9389,-0.0952 c 1.2134,-0.1218 2.4901,-0.1859 3.8355,-0.1859 2.1193,0 3.8091,0.5404 5.06,1.6211 1.2501,1.0807 1.8748,2.3207 1.8748,3.7192 0,1.044 -0.3389,1.9975 -1.0167,2.8501 -0.6731,0.8535 -1.7171,1.4946 -3.1257,1.9288 0.1273,0.217 0.2912,0.4716 0.4974,0.7629 0.4349,0.62 0.7847,1.1494 1.0549,1.5843 l 2.4847,4.0214 c 0.62,1.0644 1.0276,1.6844 1.2181,1.8702 0.1914,0.1796 0.588,0.3756 1.187,0.5927 0.4661,0.1803 0.8214,0.3553 1.0705,0.5302 0.0633,0.1749 0.0953,0.3334 0.0953,0.4661 0,0.0898 -0.006,0.2117 -0.0164,0.3553 h -0.4186 l -0.3123,0.0157 -0.8051,-0.1062 h -0.6356 c -0.3342,-0.0531 -0.7418,-0.0797 -1.2291,-0.0797 l -1.5523,-0.0156 c -0.1117,0 -0.4771,0.0375 -1.0862,0.1117 -0.2811,0.0265 -0.5036,0.0523 -0.6676,0.0741 l -0.5247,-1.0229 c -0.4342,-0.7785 -0.7419,-1.3563 -0.9168,-1.7374 -0.4552,-1.0065 -1.2392,-2.6018 -2.3465,-4.7952 -0.5138,-1.0167 -0.88,-1.5891 -1.0861,-1.7265 -0.3077,-0.2179 -0.8426,-0.3233 -1.6,-0.3233 -0.2069,0 -0.5568,0.0102 -1.0542,0.0312 -0.032,0.2968 -0.0484,0.6575 -0.0484,1.0706 l 0.0641,3.4436 -0.0742,2.9196 c 0.2858,0.1741 0.6676,0.3123 1.1283,0.4021 0.8105,0.164 1.5047,0.3655 2.0826,0.588 0,0.5091 -0.0219,0.8902 -0.0641,1.1502 -0.196,-0.0109 -0.3178,-0.0164 -0.3709,-0.0164 l -0.6356,0.0321 c -2.2254,-0.196 -3.5443,-0.2913 -3.9574,-0.2913 -0.2702,0 -0.4615,0.005 -0.5778,0.0101 l -2.1403,0.1437 c -0.6513,0.0742 -1.2447,0.1054 -1.7851,0.1054 h -0.6676 c -0.0211,-0.2537 -0.032,-0.424 -0.032,-0.4927 0,-0.1163 0.0156,-0.2756 0.0476,-0.4818 z m 6.9824,-10.0449 c 0.4982,0.0211 0.8637,0.0312 1.0917,0.0312 1.7592,0 3.0039,-0.3123 3.7403,-0.948 0.7316,-0.6301 1.1018,-1.4727 1.1018,-2.5268 0,-0.652 -0.0898,-1.2666 -0.2749,-1.8389 -0.1804,-0.5771 -0.4029,-1.0011 -0.6731,-1.2822 -0.3811,-0.4021 -0.8847,-0.7098 -1.5047,-0.9159 -0.4553,-0.1539 -1.1869,-0.2335 -2.188,-0.2335 -0.4771,0 -0.8847,0.0265 -1.229,0.0796 l -0.0157,0.2968 0.0157,2.0926 -0.0321,1.2713 0.0164,1.6952 c -0.0218,0.4717 -0.0374,1.0917 -0.0484,1.8436 z m 14.9519,-9.9653 h 0.9636 c 0.0741,0.1163 0.1272,0.2006 0.1538,0.2483 0.2913,0.4982 0.5138,0.8269 0.6676,0.9807 0.1382,0.0422 0.848,0.0633 2.1302,0.0633 0.7941,0 1.5047,-0.005 2.1239,-0.0156 l 0.3132,-0.0477 1.8748,-0.0164 3.5076,0.0321 h 4.8 l 0.9112,-0.1429 c 0.1382,-0.0906 0.2811,-0.3389 0.4342,-0.7419 0.0429,-0.0952 0.1007,-0.2225 0.1749,-0.3865 l 0.684,-0.0164 c 0.1007,0 0.2538,0.006 0.4662,0.0164 0.005,0.7098 0.0101,1.7851 0.0101,3.2265 l 0.0164,1.3821 -0.0164,0.7895 c 0,0.2702 -0.0156,0.5036 -0.0577,0.6996 -0.4241,0.1328 -0.8004,0.2171 -1.1182,0.2491 -0.2702,-0.4029 -0.5615,-0.9909 -0.8793,-1.7538 -0.3131,-0.7683 -0.5138,-1.1923 -0.5989,-1.2767 -0.1218,-0.1327 -0.2647,-0.2171 -0.4342,-0.26 -0.2436,-0.0523 -1.3407,-0.0789 -3.2905,-0.0789 -0.2858,0 -0.6512,0.0211 -1.0862,0.0633 -0.0577,0.4029 -0.0898,0.7309 -0.0898,0.9909 l 0.0157,2.0818 v 4.5617 l 0.0585,4.9218 -0.0156,2.0185 c 0,0.7153 0.0633,1.2501 0.1905,1.6109 0.164,0.0742 0.4662,0.1429 0.9113,0.2061 0.0851,0.005 0.4662,0.0906 1.1494,0.2437 0.3131,0.0742 0.588,0.1593 0.8215,0.2491 0.0531,0.3763 0.0796,0.6043 0.0796,0.684 0,0.0953 -0.0164,0.2272 -0.0476,0.4021 -0.228,0.011 -0.4139,0.0164 -0.5568,0.0164 -1.065,0 -1.9708,-0.0374 -2.7173,-0.1171 -0.7419,-0.0742 -2.0927,-0.1163 -4.048,-0.1163 -0.3124,0 -1.2236,0.0632 -2.7338,0.1858 -0.588,0.0422 -0.9745,0.0633 -1.1494,0.0633 -0.0109,-0.1539 -0.0211,-0.2757 -0.032,-0.3553 l -0.0156,-0.36 v -0.1218 c 0.2272,-0.3022 0.6567,-0.5248 1.2868,-0.6677 1.0807,-0.2592 1.8225,-0.4927 2.2364,-0.6996 0.1054,-0.196 0.1694,-0.4553 0.1905,-0.7731 0.0687,-1.2454 0.1054,-3.221 0.1054,-5.9282 l -0.0788,-5.8705 c 0,-1.6156 -0.0266,-2.5909 -0.0906,-2.9353 -0.0211,-0.0898 -0.0578,-0.1585 -0.1109,-0.2061 -0.0476,-0.0476 -0.1218,-0.0742 -0.2171,-0.0851 -0.3178,-0.0422 -1.3673,-0.0633 -3.1367,-0.0633 -0.9698,0 -1.621,0.0953 -1.9553,0.2804 -0.4443,0.26 -1.1119,0.9588 -2.0021,2.1091 -0.2545,0.3334 -0.4505,0.4974 -0.5723,0.4974 -0.4771,-0.2484 -0.7786,-0.4498 -0.9168,-0.6036 0.3233,-0.6731 0.7684,-2.0186 1.3353,-4.0371 0.164,-0.588 0.2858,-0.9909 0.3553,-1.197 z m 17.435,20.9535 0.032,-1.0549 c 0.196,-0.0578 0.5403,-0.1375 1.0385,-0.2327 0.795,-0.1539 1.2822,-0.2913 1.4517,-0.4186 0.1694,-0.1218 0.381,-0.424 0.6301,-0.9011 l 3.1312,-8.2115 3.6826,-9.6529 c 0.3389,0.0101 0.6676,0.0156 0.9745,0.0156 h 0.6996 l 0.1375,0.2811 2.7017,6.3944 c 0.6099,1.3564 1.1604,2.6706 1.6476,3.9527 0.4881,1.2767 0.9066,2.32 1.2557,3.1258 0.2069,0.4873 0.4927,1.2127 0.8534,2.188 0.1851,0.5294 0.4717,1.1916 0.8527,1.9865 0.207,0.4349 0.3655,0.6887 0.4662,0.7574 0.1858,0.1593 0.4927,0.26 0.9113,0.3131 0.4185,0.0531 0.8691,0.1695 1.3563,0.3545 0.0531,0.3444 0.0797,0.5989 0.0797,0.7629 0,0.0742 -0.006,0.1859 -0.0157,0.3397 -0.7683,0 -1.6109,-0.032 -2.5331,-0.1062 -0.9214,-0.0742 -1.7483,-0.1117 -2.4846,-0.1117 -0.816,0 -1.404,0.011 -1.7695,0.0321 l -2.6385,0.1429 -0.7574,0.032 c 0,-0.3655 0.0156,-0.7098 0.0476,-1.044 l 1.7218,-0.3709 c 0.5138,-0.132 0.816,-0.2382 0.9011,-0.3124 0.1007,-0.1007 0.1531,-0.2225 0.1531,-0.3545 0,-0.1327 -0.0266,-0.2756 -0.0789,-0.4185 l -0.62,-1.5211 -1.2244,-3.0407 -5.9283,-0.0164 c -0.217,0.4927 -0.6676,1.7116 -1.3508,3.645 -0.196,0.5513 -0.2968,0.9222 -0.2968,1.1182 0,0.2702 0.0742,0.4607 0.2171,0.5724 0.2389,0.2015 0.6942,0.3389 1.3673,0.424 0.0898,0.0156 0.4607,0.0742 1.1018,0.1694 0.0109,0.371 0.0156,0.6302 0.0156,0.7731 0,0.1163 -0.0102,0.2335 -0.0312,0.3608 -0.6411,0 -2.1724,-0.0906 -4.5938,-0.2655 l -0.6356,0.1062 c -0.7684,0.1272 -1.4993,0.1858 -2.188,0.1858 z m 7.2955,-8.7206 c 2.4215,0.0312 3.8465,0.0476 4.2807,0.0476 l 0.392,-0.0164 c -0.3124,-0.9214 -0.7153,-1.9966 -1.2127,-3.221 -0.4982,-1.2236 -0.9011,-2.1614 -1.208,-2.8025 z m 14.6068,8.7206 0.0476,-1.0549 c 1.2931,-0.164 2.1138,-0.4287 2.4691,-0.7895 0.228,-0.2483 0.4029,-0.8948 0.5247,-1.9389 l 0.2007,-5.5253 0.2335,-5.6214 c 0.021,-0.3389 0.032,-0.5458 0.032,-0.62 0,-1.4571 -0.0851,-2.3043 -0.2546,-2.5323 -0.1694,-0.228 -0.8371,-0.4506 -1.9974,-0.6677 -0.2858,-0.0585 -0.5138,-0.1108 -0.6778,-0.1538 -0.0211,-0.2592 -0.032,-0.4763 -0.032,-0.6512 v -0.4826 c 0.3818,-0.0312 0.8316,-0.0476 1.3509,-0.0476 l 4.5461,0.1593 c 0.1,0.0101 0.2483,0.0211 0.4342,0.0312 l 0.7152,0.0266 c 0.175,0.2123 0.3499,0.4825 0.5248,0.8269 0.3865,0.752 0.8894,1.8592 1.5203,3.3218 l 0.1749,0.4185 2.4207,5.2606 c 0.0476,0.1218 0.1327,0.3077 0.2491,0.5459 0.1538,0.3709 0.3131,0.7261 0.4771,1.0596 0.1694,0.3389 0.3389,0.7098 0.5247,1.1127 0.1796,0.4029 0.3491,0.7574 0.5185,1.0698 0.1437,-0.2483 0.2811,-0.524 0.4185,-0.8207 0.4139,-0.9542 0.816,-1.828 1.208,-2.6284 0.6841,-1.4032 1.6109,-3.5544 2.7814,-6.4522 0.1859,-0.467 0.4928,-1.1713 0.9222,-2.1036 0.4295,-0.9378 0.6677,-1.4306 0.7044,-1.4837 0.096,-0.0843 0.2811,-0.1272 0.5622,-0.1272 0.1007,0 0.2647,0 0.4818,-0.0102 0.5349,-0.032 1.1814,-0.0586 1.9388,-0.0796 1.0862,-0.011 1.9553,-0.0422 2.6175,-0.1008 0.6567,-0.0578 1.0221,-0.0843 1.1072,-0.0843 0.1062,0 0.228,0.0101 0.3709,0.0312 0.011,0.1429 0.0157,0.2546 0.0157,0.3397 l -0.0313,0.4662 c 0,0.0952 -0.005,0.2327 -0.0164,0.4185 -0.969,0.1429 -1.7639,0.36 -2.373,0.6512 -0.424,0.207 -0.6364,0.4662 -0.6364,0.7786 v 0.2334 l 0.2655,4.7469 c 0.0312,0.4349 0.1109,2.5909 0.2491,6.4741 0.0312,0.8691 0.0953,1.9709 0.2007,3.3061 0.0218,0.164 0.032,0.2913 0.032,0.3865 0.0109,0.2491 0.064,0.4084 0.1593,0.4826 0.1007,0.0687 1.0276,0.3709 2.7861,0.9003 0.0109,0.1648 0.0164,0.2866 0.0164,0.3709 0,0.2171 -0.005,0.4342 -0.0164,0.6521 -0.2749,0 -0.98,-0.0586 -2.1083,-0.1804 -1.1284,-0.1164 -2.1825,-0.1749 -3.168,-0.1749 -1.4992,0 -2.9563,0.0585 -4.3759,0.1858 -0.1858,0.0211 -0.3662,0.0367 -0.5411,0.0477 l 0.0265,-1.0761 c 0.424,-0.1639 0.9909,-0.3014 1.696,-0.4185 0.4928,-0.0797 0.8106,-0.2226 0.9425,-0.4185 0.1382,-0.196 0.207,-0.7419 0.207,-1.6422 0,-0.3444 -0.006,-0.6411 -0.0164,-0.9003 -0.0524,-1.0862 -0.0844,-2.5964 -0.0953,-4.5352 l -0.2647,-5.4785 c -0.032,-0.7731 -0.0633,-1.3134 -0.1062,-1.6156 l -3.8668,8.8791 c -0.0906,0.2069 -0.2335,0.5091 -0.4186,0.9011 -0.2389,0.5083 -0.3974,0.8527 -0.4825,1.0378 -0.7949,1.9185 -1.3509,3.3803 -1.6586,4.3978 -0.0843,0.2545 -0.2061,0.5934 -0.3709,1.0065 l -1.197,-0.0156 -0.8371,-2.3738 c -0.2491,-0.62 -0.6731,-1.5625 -1.2767,-2.8236 -0.3498,-0.7364 -0.6255,-1.3298 -0.8215,-1.7858 -0.0898,-0.1851 -0.1585,-0.328 -0.2014,-0.4186 l -0.1851,-0.392 c -0.0109,-0.0578 -0.0266,-0.1109 -0.0476,-0.1538 l -2.3098,-4.9795 -1.4149,-3.0305 -0.1218,7.3431 -0.1109,4.7625 c 0,0.7894 0.1483,1.3509 0.4451,1.6851 0.2912,0.3389 0.9268,0.6247 1.8967,0.8636 l 0.7465,0.1851 v 1.1338 c -0.5982,-0.0109 -1.2447,-0.0531 -1.9334,-0.1328 -0.6887,-0.0788 -1.6,-0.1163 -2.7393,-0.1163 -0.2381,0 -1.2556,0.0476 -3.057,0.1382 z m 29.1338,-20.0852 c 0.5879,0.032 1.1018,0.0796 1.5367,0.1429 0.816,0.1116 1.7639,0.1702 2.8392,0.1702 0.3764,0 1.3298,-0.032 2.872,-0.096 2.3098,-0.0898 4.3915,-0.1375 6.257,-0.1375 l 2.808,-0.032 c 0.6301,0 1.5625,0.0797 2.797,0.2335 0.1858,0.2061 0.2756,0.4872 0.2756,0.8371 v 3.1999 l 0.0321,0.6356 c 0,0.0633 -0.006,0.1539 -0.0164,0.2811 l -0.6357,0.0313 c -0.0843,0 -0.2592,-0.0102 -0.5247,-0.0313 -0.0953,-0.2069 -0.2225,-0.5138 -0.3756,-0.9167 l -0.62,-1.1018 c -0.2389,-0.4661 -0.5669,-0.9432 -0.9909,-1.4305 -0.2592,-0.0687 -0.5935,-0.1117 -0.9956,-0.1218 -0.1062,-0.0109 -0.4193,-0.0375 -0.9487,-0.0797 -0.9589,-0.0796 -1.9975,-0.1218 -3.1047,-0.1218 -1.2611,0 -2.3895,0.0211 -3.3804,0.0633 -0.0312,0.2545 -0.0476,1.2767 -0.0476,3.057 l 0.032,2.6065 v 1.9553 c 0.2593,0.032 0.4818,0.0476 0.6677,0.0476 1.849,0 3.1679,-0.0374 3.9573,-0.1116 0.784,-0.0687 1.2721,-0.1695 1.4571,-0.3014 0.1851,-0.1273 0.3553,-0.3553 0.4982,-0.6731 0.0953,-0.228 0.2757,-0.9909 0.5404,-2.2833 l 0.2061,-0.0164 0.8957,0.0164 c 0.0421,0.9214 0.064,1.6211 0.064,2.0982 0,1.0854 -0.005,1.785 -0.0219,2.0927 -0.0156,0.3123 -0.0265,0.556 -0.0265,0.7309 0,0.2803 0.0164,0.7254 0.0484,1.3399 0.0312,0.6146 0.0476,1.0761 0.0476,1.3775 v 0.3396 h -1.1026 c -0.0421,-0.1647 -0.1163,-0.5091 -0.2326,-1.0229 -0.207,-0.9643 -0.392,-1.5625 -0.5568,-1.8014 -0.1265,-0.1851 -0.3334,-0.328 -0.6247,-0.4186 -0.2069,-0.0741 -0.9698,-0.1108 -2.2941,-0.1108 -1.5633,0 -2.7393,0.0421 -3.5233,0.1272 -0.0109,0.2647 -0.0156,0.4451 -0.0156,0.524 0,1.2345 0.0211,2.2575 0.0633,3.0734 l -0.0321,3.353 c 0,0.3928 0.1383,0.663 0.4186,0.8059 0.424,0.2171 1.7218,0.328 3.8941,0.328 1.4415,0 2.6596,-0.1109 3.6661,-0.328 0.6888,-0.1538 1.3033,-0.4982 1.828,-1.0385 0.7044,-0.6942 1.2877,-1.6641 1.7538,-2.9197 0.3233,-0.0257 0.588,-0.0421 0.795,-0.0421 0.1108,0 0.2803,0.005 0.5083,0.0109 -0.0266,0.2592 -0.0531,0.4763 -0.0742,0.6567 l -0.0953,0.4607 -0.5723,2.9352 -0.2811,1.7695 c -0.6724,0.032 -1.2026,0.0476 -1.6,0.0476 -0.5771,0 -2.1239,-0.0523 -4.6406,-0.153 -1.7695,-0.0742 -3.8997,-0.1117 -6.3945,-0.1117 -1.24,0 -2.7658,0.0531 -4.5774,0.1538 h -0.652 l -1.8811,0.0633 v -1.0698 c 0.2015,-0.0531 0.5935,-0.1117 1.1815,-0.1695 1.076,-0.1272 1.8225,-0.292 2.2363,-0.4981 0.1109,-0.3022 0.1695,-0.6786 0.1695,-1.1338 0,-0.175 -0.005,-0.4772 -0.0164,-0.9012 l 0.0164,-0.4817 -0.0477,-5.8487 0.0157,-1.7538 -0.0742,-2.4847 0.0156,-1.7538 -0.1429,-1.9232 c 0,-0.0531 -0.0102,-0.1585 -0.032,-0.3124 -0.1,-0.1116 -0.2538,-0.1858 -0.4607,-0.217 -0.1164,-0.0219 -0.2702,-0.0531 -0.4662,-0.0906 -0.5934,-0.1273 -1.1603,-0.2015 -1.7109,-0.2171 -0.1959,-0.0109 -0.424,-0.032 -0.684,-0.0633 z m 22.0553,1.229 -0.0586,-1.0861 h 1.3197 l 0.4505,-0.0156 c 0.6193,-0.0321 1.0487,-0.0477 1.2869,-0.0477 0.1218,0 0.4826,0.011 1.0862,0.032 0.1327,0.0102 0.2491,0.0157 0.3389,0.0157 0.096,0 0.4185,-0.011 0.9807,-0.0321 0.556,-0.021 0.8738,-0.0312 0.9425,-0.0312 0.1171,0 0.2756,0.005 0.4826,0.0156 1.5945,1.4516 2.8923,2.6963 3.8988,3.7403 1.0018,1.044 4.668,4.7047 10.9882,10.9719 v -0.3866 l -0.0632,-1.8014 c -0.032,-1.0542 -0.0742,-1.8912 -0.1218,-2.5058 -0.0531,-0.6145 -0.0852,-1.3509 -0.0953,-2.2035 -0.0109,-0.8535 -0.0484,-1.6266 -0.1062,-2.3208 -0.1273,-1.3563 -0.1905,-2.1348 -0.1905,-2.3418 -0.005,-0.6731 -0.0797,-1.0807 -0.2179,-1.229 -0.2171,-0.228 -0.7098,-0.3975 -1.4883,-0.5084 -0.5669,-0.096 -0.9909,-0.2124 -1.2712,-0.3607 l 0.0156,-0.9167 0.4029,-0.0422 3.0563,-0.0953 3.4178,-0.0898 c 0.2272,-0.0109 0.4451,-0.0164 0.6512,-0.0164 l 0.0156,1.0066 c -0.2381,0.1218 -0.4817,0.2178 -0.7308,0.2811 -0.6622,0.1538 -1.0433,0.2647 -1.1495,0.3232 -0.5247,0.3022 -0.8105,0.4818 -0.8527,0.5459 -0.0905,0.1218 -0.1382,0.3123 -0.1382,0.5715 0,0.0641 0.011,0.2812 0.032,0.6521 0.0102,0.185 0.0157,0.62 0.0157,1.3032 0.005,1.5047 0.0476,2.6862 0.1218,3.5553 0.0211,0.2803 0.0375,0.5981 0.0476,0.9479 l 0.1695,5.4465 c 0.0109,0.3865 0.0164,0.652 0.0164,0.8105 v 1.9077 l 0.0476,0.805 -0.0476,0.8426 c 0.0421,0.4232 0.0632,0.6723 0.0632,0.7574 v 0.8215 l -1.785,0.0632 -1.8491,-1.9076 -3.7723,-3.7403 -2.6386,-2.6378 -1.9388,-1.9872 c -1.2611,-1.2447 -2.4105,-2.3364 -3.4436,-3.2796 l -2.5323,-2.2778 0.1374,5.7744 c 0.0109,0.3499 0.0156,0.7106 0.0156,1.0862 l -0.0156,1.1026 0.0953,2.0341 c 0.032,0.8472 0.0898,1.7694 0.1694,2.7603 0.0211,0.2702 0.0476,0.4553 0.0797,0.567 0.032,0.1054 0.0898,0.2647 0.185,0.4716 0.403,0.1484 1.2822,0.2538 2.6385,0.3279 0.0953,0.0211 0.2281,0.0586 0.403,0.1062 l 0.0632,1.2611 -0.6036,0.0156 c -0.3342,0 -1.3774,-0.0796 -3.1367,-0.2326 -1.6476,0.021 -2.7439,0.0476 -3.2897,0.0898 -0.5513,0.0421 -0.8481,0.0632 -0.9012,0.0632 -0.1265,0 -0.2959,-0.0211 -0.5138,-0.0632 -0.021,-0.2382 -0.0312,-0.4451 -0.0312,-0.6201 0,-0.1108 0.005,-0.3021 0.0156,-0.5559 0.2913,-0.0531 0.5294,-0.0797 0.7153,-0.0797 0.0632,0 0.2647,0.011 0.6036,0.032 0.8691,0 1.3829,-0.064 1.5477,-0.1959 0.1585,-0.1273 0.2483,-0.4772 0.2701,-1.0495 0.0742,-1.6422 0.1109,-2.6487 0.1109,-3.0094 v -0.8527 l 0.0266,-5.0436 -0.0422,-3.1523 c -0.0109,-1.2025 -0.0906,-2.0342 -0.2335,-2.5011 -0.0632,-0.2382 -0.185,-0.4443 -0.36,-0.6192 -0.3607,-0.3709 -0.7629,-0.6521 -1.2079,-0.8371 -0.2702,-0.1171 -0.9699,-0.26 -2.0982,-0.435 z m 28.3131,-2.0973 h 0.9636 c 0.0742,0.1163 0.1273,0.2006 0.1538,0.2483 0.2913,0.4982 0.5138,0.8269 0.6677,0.9807 0.1382,0.0422 0.848,0.0633 2.1301,0.0633 0.7942,0 1.5047,-0.005 2.124,-0.0156 l 0.3131,-0.0477 1.8748,-0.0164 3.5076,0.0321 h 4.8 l 0.9112,-0.1429 c 0.1382,-0.0906 0.2811,-0.3389 0.4342,-0.7419 0.0429,-0.0952 0.1007,-0.2225 0.1749,-0.3865 l 0.684,-0.0164 c 0.1008,0 0.2538,0.006 0.4662,0.0164 0.005,0.7098 0.0102,1.7851 0.0102,3.2265 l 0.0164,1.3821 -0.0164,0.7895 c 0,0.2702 -0.0157,0.5036 -0.0578,0.6996 -0.424,0.1328 -0.8004,0.2171 -1.1182,0.2491 -0.2702,-0.4029 -0.5614,-0.9909 -0.8793,-1.7538 -0.3131,-0.7683 -0.5138,-1.1923 -0.5989,-1.2767 -0.1218,-0.1327 -0.2647,-0.2171 -0.4341,-0.26 -0.2437,-0.0523 -1.3408,-0.0789 -3.2906,-0.0789 -0.2858,0 -0.6512,0.0211 -1.0861,0.0633 -0.0578,0.4029 -0.0898,0.7309 -0.0898,0.9909 l 0.0156,2.0818 v 4.5617 l 0.0585,4.9218 -0.0156,2.0185 c 0,0.7153 0.0633,1.2501 0.1906,1.6109 0.1639,0.0742 0.4661,0.1429 0.9112,0.2061 0.0851,0.005 0.4662,0.0906 1.1494,0.2437 0.3132,0.0742 0.588,0.1593 0.8215,0.2491 0.0531,0.3763 0.0796,0.6043 0.0796,0.684 0,0.0953 -0.0163,0.2272 -0.0476,0.4021 -0.228,0.011 -0.4138,0.0164 -0.5567,0.0164 -1.0651,0 -1.9709,-0.0374 -2.7174,-0.1171 -0.7418,-0.0742 -2.0927,-0.1163 -4.048,-0.1163 -0.3123,0 -1.2236,0.0632 -2.7338,0.1858 -0.588,0.0422 -0.9745,0.0633 -1.1494,0.0633 -0.0109,-0.1539 -0.0211,-0.2757 -0.032,-0.3553 l -0.0156,-0.36 v -0.1218 c 0.2272,-0.3022 0.6567,-0.5248 1.2868,-0.6677 1.0807,-0.2592 1.8226,-0.4927 2.2364,-0.6996 0.1054,-0.196 0.1695,-0.4553 0.1905,-0.7731 0.0688,-1.2454 0.1055,-3.221 0.1055,-5.9282 l -0.0789,-5.8705 c 0,-1.6156 -0.0266,-2.5909 -0.0906,-2.9353 -0.0211,-0.0898 -0.0578,-0.1585 -0.1109,-0.2061 -0.0476,-0.0476 -0.1218,-0.0742 -0.2171,-0.0851 -0.3178,-0.0422 -1.3672,-0.0633 -3.1367,-0.0633 -0.9698,0 -1.621,0.0953 -1.9552,0.2804 -0.4443,0.26 -1.112,0.9588 -2.0021,2.1091 -0.2546,0.3334 -0.4506,0.4974 -0.5724,0.4974 -0.4771,-0.2484 -0.7785,-0.4498 -0.9167,-0.6036 0.3232,-0.6731 0.7683,-2.0186 1.3352,-4.0371 0.164,-0.588 0.2858,-0.9909 0.3553,-1.197 z" style="fill:#006a92;fill-rule:evenodd" id="path3"/>
      <path d="m 434.0404,367.5765 c 0,-1.2821 0.249,-2.569 0.7418,-3.8621 0.3654,-0.9323 0.8691,-1.785 1.5203,-2.5643 0.652,-0.7731 1.4735,-1.4673 2.4535,-2.0716 0.9854,-0.6036 1.9865,-1.0378 3.0141,-1.3033 1.0229,-0.2647 2.1668,-0.3967 3.4279,-0.3967 2.1513,0 4.0214,0.4022 5.605,1.2127 1.5844,0.8059 2.8299,1.8967 3.7411,3.2741 1.176,1.7913 1.7694,3.6662 1.7694,5.6324 0,2.9298 -0.9963,5.441 -2.9883,7.5282 -1.992,2.0927 -4.7632,3.1359 -8.3122,3.1359 -0.8801,0 -1.7007,-0.0577 -2.4691,-0.1694 -0.5778,-0.0843 -1.0862,-0.196 -1.5203,-0.3444 -0.7848,-0.2537 -1.2244,-0.4076 -1.3197,-0.445 -1.1283,-0.6458 -2.0341,-1.3033 -2.7174,-1.9756 -0.684,-0.6731 -1.2611,-1.4305 -1.7382,-2.2786 -0.2592,-0.4763 -0.5505,-1.3352 -0.8847,-2.5799 -0.2171,-0.7949 -0.3232,-1.7273 -0.3232,-2.7924 z m 10.5696,-8.662 c -0.9003,0 -1.7007,0.2124 -2.3894,0.6309 -0.6942,0.4186 -1.2189,0.8793 -1.5679,1.3876 -0.5935,0.8582 -1.012,1.8014 -1.2611,2.8189 -0.2437,1.0167 -0.3709,2.2567 -0.3709,3.7192 0,0.8902 0.0367,1.5258 0.1108,1.9069 0.0219,0.1218 0.0477,0.3342 0.0906,0.6356 0.0953,0.7684 0.2015,1.3251 0.328,1.6742 0.4451,1.3196 0.7582,2.1301 0.9433,2.437 0.3123,0.5302 0.7738,1.055 1.3829,1.5688 0.3123,0.2701 0.7629,0.5138 1.3508,0.7363 0.588,0.2225 1.1815,0.3334 1.7695,0.3334 1.1182,0 2.1567,-0.2592 3.1101,-0.7785 0.9589,-0.5247 1.7273,-1.4149 2.3098,-2.6651 0.5778,-1.2501 0.8691,-2.8821 0.8691,-4.8897 0,-0.8269 -0.0586,-1.9498 -0.1749,-3.3694 l -0.0742,-0.292 c -0.032,-0.0844 -0.0851,-0.2968 -0.1593,-0.6356 -0.3811,-1.7008 -1.1119,-2.9931 -2.1934,-3.8832 -1.0807,-0.8902 -2.4418,-1.3353 -4.0738,-1.3353 z m -257.7369,60.9061 c 0.2686,-0.0718 0.8051,-0.1702 1.6289,-0.3139 1.6296,-0.2772 2.6955,-0.6536 3.1968,-1.1276 0.3225,-0.2959 0.5193,-0.869 0.6091,-1.7014 0.0179,-0.2148 0.0804,-2.883 0.1788,-8.0046 l -0.0266,-2.8829 0.0266,-3.492 -0.0984,-8.9448 0.0265,-1.0479 c 0,-0.4568 -0.1249,-0.8058 -0.367,-1.0471 -0.1249,-0.1257 -0.4653,-0.1882 -1.0299,-0.1882 -0.4474,0 -0.9753,0.0539 -1.5664,0.1609 -0.7699,0.0359 -1.4688,0.1077 -2.0771,0.2061 -0.1077,0.018 -0.2686,0.0445 -0.5013,0.0804 l -0.0273,-2.3097 c 1.0385,-0.3319 2.5159,-0.6536 4.4407,-0.9675 3.1789,-0.5279 7.1003,-0.7879 11.748,-0.7879 3.8856,0 6.724,0.2147 8.5239,0.6536 2.7306,0.6809 4.9514,1.7015 6.6615,3.0445 2.2918,1.7999 4.0112,3.8856 5.1567,6.2586 1.1463,2.3637 1.7195,4.9514 1.7195,7.7453 0,3.5365 -0.7699,6.5624 -2.3098,9.0962 -1.5406,2.5253 -3.752,4.5485 -6.6349,6.0712 -2.0326,1.0831 -4.7812,1.6203 -8.2646,1.6203 l -5.3723,-0.2327 -1.5758,-0.0804 -2.131,0.0539 -0.6262,-0.0539 -2.2028,0.0539 -2.9103,-0.0274 c -0.107,0 -0.9932,0.0633 -2.6768,0.1882 -0.5551,0.0359 -1.2985,0.0625 -2.2028,0.0804 -0.5637,0 -0.976,0.009 -1.2626,0.018 -0.0359,-0.3756 -0.0531,-1.0924 -0.0531,-2.1216 z m 12.7225,-29.2166 c -0.0531,0.5373 -0.071,0.923 -0.071,1.1463 l 0.071,4.4587 -0.0531,3.8864 c 0.0531,1.2626 0.0804,2.3636 0.0804,3.3038 l -0.0273,2.4979 0.0539,4.1636 -0.0539,2.5698 c 0,2.3995 0.4482,4.0292 1.3431,4.8796 1.29,1.2267 3.0711,1.8357 5.3457,1.8357 1.7367,0 3.0087,-0.1608 3.8325,-0.4927 1.7187,-0.6621 3.0711,-1.5484 4.0823,-2.6502 1.0034,-1.101 1.764,-2.6588 2.2926,-4.6828 0.5279,-2.0232 0.7879,-4.1097 0.7879,-6.2586 0,-3.5279 -0.5646,-6.4194 -1.6921,-8.6581 -1.1284,-2.2388 -2.6682,-3.9215 -4.6297,-5.0498 -1.9608,-1.1284 -4.2081,-1.6922 -6.7419,-1.6922 -1.782,0 -3.3218,0.2507 -4.6204,0.7426 z m 28.9925,-2.6049 c 0.994,0.0539 1.8623,0.1343 2.5963,0.2413 1.379,0.1882 2.9821,0.2866 4.7992,0.2866 0.6356,0 2.2473,-0.0539 4.853,-0.1609 3.9043,-0.1523 7.4229,-0.2327 10.5744,-0.2327 l 4.7453,-0.0539 c 1.0658,0 2.6416,0.1343 4.7281,0.3936 0.3131,0.3498 0.4654,0.8238 0.4654,1.4149 v 5.4082 l 0.0538,1.0745 c 0,0.1069 -0.009,0.2592 -0.0273,0.4747 l -1.0745,0.0531 c -0.1429,0 -0.4388,-0.0179 -0.8862,-0.0531 -0.1609,-0.3498 -0.3756,-0.8691 -0.6357,-1.5492 l -1.0479,-1.8623 c -0.4029,-0.7879 -0.9573,-1.5938 -1.6741,-2.4176 -0.4389,-0.1163 -1.0026,-0.1882 -1.6836,-0.2061 -0.1788,-0.018 -0.7066,-0.0625 -1.6023,-0.1343 -1.6203,-0.1343 -3.3756,-0.2062 -5.2466,-0.2062 -2.1309,0 -4.0386,0.0359 -5.7127,0.1078 -0.0539,0.4295 -0.0804,2.1575 -0.0804,5.1661 l 0.0538,4.4056 v 3.3038 c 0.4381,0.0539 0.8145,0.0805 1.1276,0.0805 3.125,0 5.3543,-0.0625 6.6888,-0.1882 1.3251,-0.1164 2.1489,-0.2866 2.4621,-0.5099 0.3131,-0.2155 0.5997,-0.6005 0.8417,-1.1377 0.1609,-0.385 0.4654,-1.6742 0.9136,-3.859 l 0.3491,-0.0266 1.5133,0.0266 c 0.071,1.5586 0.107,2.74 0.107,3.5459 0,1.8358 -0.009,3.0172 -0.036,3.5365 -0.0265,0.5286 -0.0445,0.9401 -0.0445,1.2361 0,0.4739 0.0266,1.2267 0.0805,2.2652 0.0538,1.0386 0.0804,1.8171 0.0804,2.3278 v 0.5731 h -1.8624 c -0.071,-0.278 -0.1967,-0.8597 -0.3935,-1.728 -0.349,-1.6297 -0.663,-2.6417 -0.9402,-3.0446 -0.2147,-0.3131 -0.5645,-0.5552 -1.0565,-0.7074 -0.349,-0.125 -1.639,-0.1875 -3.8769,-0.1875 -2.6417,0 -4.6289,0.0711 -5.9541,0.2148 -0.0179,0.4474 -0.0273,0.752 -0.0273,0.8863 0,2.0864 0.0359,3.8144 0.1078,5.1934 l -0.0539,5.6675 c 0,0.6622 0.2327,1.119 0.7074,1.361 0.7161,0.367 2.9095,0.5552 6.5811,0.5552 2.4355,0 4.4946,-0.1882 6.1961,-0.5552 1.1635,-0.26 2.202,-0.8417 3.0883,-1.7553 1.1916,-1.1729 2.1763,-2.8111 2.9642,-4.9335 0.5458,-0.0445 0.994,-0.071 1.343,-0.071 0.1882,0 0.4748,0.009 0.8598,0.0179 -0.0453,0.4381 -0.0898,0.8059 -0.1258,1.1096 l -0.1608,0.7793 -0.9675,4.96 -0.474,2.9907 c -1.1377,0.0539 -2.0326,0.0804 -2.7041,0.0804 -0.9761,0 -3.5904,-0.089 -7.8437,-0.2592 -2.9907,-0.1257 -6.5897,-0.1882 -10.8071,-0.1882 -2.095,0 -4.6734,0.0898 -7.7359,0.26 h -1.1011 l -3.1788,0.107 v -1.8085 c 0.3404,-0.0898 1.0026,-0.1881 1.9966,-0.2865 1.8179,-0.2148 3.0797,-0.4928 3.7786,-0.8418 0.1882,-0.5099 0.2866,-1.1463 0.2866,-1.9162 0,-0.2952 -0.009,-0.8059 -0.0274,-1.5219 l 0.0274,-0.8145 -0.0805,-9.8848 0.0266,-2.9642 -0.1257,-4.1994 0.0273,-2.9634 -0.2421,-3.2499 c 0,-0.0898 -0.0179,-0.2686 -0.0538,-0.5286 -0.1695,-0.1882 -0.4295,-0.3132 -0.7786,-0.367 -0.1967,-0.036 -0.4568,-0.0898 -0.7878,-0.1523 -1.0027,-0.2148 -1.9608,-0.3405 -2.8923,-0.367 -0.3311,-0.018 -0.7161,-0.0539 -1.1549,-0.1078 z m 38.1964,31.7942 c 0.5373,-0.1523 1.3072,-0.3046 2.2918,-0.4568 0.9855,-0.1515 1.5672,-0.2233 1.746,-0.2233 0.6809,-0.018 1.1377,-0.1344 1.3611,-0.3405 0.1077,-0.4209 0.1616,-0.7699 0.1616,-1.0479 l -0.0539,-3.3569 0.1609,-3.4116 v -2.1762 l 0.0273,-2.5691 -0.0539,-2.7314 0.0984,-5.8463 0.0266,-2.6502 v -0.3678 c -0.1164,-1.835 -0.2413,-2.847 -0.3491,-3.0352 -0.1163,-0.1788 -0.6176,-0.4115 -1.5133,-0.6895 -0.0804,-0.0351 -0.4209,-0.1694 -0.9932,-0.3935 -0.4389,-0.1789 -0.8332,-0.296 -1.1822,-0.367 -0.6091,-0.1617 -1.0386,-0.3405 -1.2806,-0.5552 -0.036,-0.4568 -0.0531,-0.8059 -0.0531,-1.0479 0,-0.1429 0.009,-0.3491 0.0265,-0.6263 0.1523,-0.0898 0.3225,-0.1343 0.4927,-0.1343 0.4201,0 1.9428,0.0711 4.5657,0.2147 l 3.752,-0.0273 2.7846,0.0453 c 1.2001,0 2.7486,-0.0718 4.6383,-0.2327 0.5637,-0.0539 0.8862,-0.0812 0.976,-0.0812 0.2593,0 0.4381,0.0718 0.5458,0.2155 0.1429,0.1874 0.2062,0.5372 0.2062,1.0471 0,0.403 -0.0898,0.7075 -0.2866,0.9136 -0.0984,0.125 -0.4833,0.2327 -1.1549,0.3225 l -3.2507,0.7606 c -0.089,0.0273 -0.2327,0.0984 -0.4474,0.2061 -0.0719,0.125 -0.1164,0.2241 -0.1523,0.3132 l -0.0265,0.734 -0.0812,1.6569 v 0.4748 l 0.0273,0.2858 c 0,0.0898 -0.0273,0.5646 -0.0804,1.4422 -0.018,0.2234 -0.0274,0.4561 -0.0274,0.6802 0,0.2772 0.018,0.7519 0.0539,1.4149 0.0539,1.0471 0.0804,1.9693 0.0804,2.7572 0,0.905 -0.0265,1.9521 -0.0804,3.125 -0.0179,0.4302 -0.0265,1.0026 -0.0265,1.7015 l -0.1078,12.4367 c 0,0.5193 0.0898,0.8597 0.2686,1.0206 l 2.4894,0.1077 1.5484,-0.0273 1.6476,0.0539 c 2.8205,0 5.0319,-0.3311 6.6436,-0.9761 1.2002,-0.4927 1.988,-0.9761 2.3551,-1.468 0.5997,-0.5286 1.0838,-1.0924 1.4594,-1.7015 0.3763,-0.6176 0.7972,-1.6296 1.2712,-3.0446 h 0.8418 c 0.4209,0 0.8862,0.036 1.4149,0.0992 v 0.7426 c 0,1.2541 -0.1609,3.4561 -0.4748,6.6084 -0.1163,1.2533 -0.2413,2.0232 -0.367,2.3098 -0.4029,0.0625 -0.6536,0.0984 -0.7613,0.0984 h -0.9667 l -1.361,0.0265 c -0.1609,0 -1.1994,-0.071 -3.125,-0.2053 -0.3491,-0.018 -2.0232,-0.0812 -5.0139,-0.1882 -2.9907,-0.0984 -5.9181,-0.1523 -8.7839,-0.1523 l -5.3543,0.1523 c -2.0592,0.0539 -3.9933,0.1522 -5.7924,0.2951 h -0.3944 c -0.107,0 -0.2686,-0.009 -0.5013,-0.0265 -0.0359,-0.1968 -0.0539,-0.3584 -0.0539,-0.5013 0,-0.7348 0.0625,-1.2713 0.1882,-1.6031 z m 45.6732,2.1489 0.0531,-1.7819 c 0.3318,-0.0984 0.9136,-0.2327 1.7553,-0.3936 1.3431,-0.26 2.1669,-0.4927 2.4535,-0.7074 0.2866,-0.2062 0.6442,-0.7161 1.0651,-1.5219 l 5.2919,-13.8782 6.2226,-16.3137 c 0.5732,0.018 1.1284,0.0266 1.6476,0.0266 h 1.1815 l 0.2334,0.4747 4.5657,10.8071 c 1.03,2.2918 1.9615,4.5126 2.7853,6.6795 0.8231,2.1575 1.5305,3.9214 2.1216,5.2825 0.3491,0.8238 0.8332,2.0505 1.4415,3.6981 0.3139,0.8949 0.7972,2.0146 1.4414,3.3577 0.3499,0.734 0.6185,1.1635 0.7879,1.2798 0.3139,0.2686 0.8332,0.4389 1.5407,0.5287 0.7066,0.0898 1.468,0.2865 2.2918,0.5997 0.0898,0.5817 0.1343,1.0119 0.1343,1.2891 0,0.1258 -0.009,0.314 -0.0266,0.5732 -1.2985,0 -2.722,-0.0539 -4.2798,-0.1788 -1.5586,-0.1257 -2.9548,-0.1882 -4.1995,-0.1882 -1.379,0 -2.373,0.018 -2.9907,0.0539 l -4.4587,0.2413 -1.2806,0.0538 c 0,-0.6176 0.0266,-1.1994 0.0804,-1.7639 l 2.9103,-0.6263 c 0.8683,-0.2241 1.379,-0.4029 1.5219,-0.5286 0.1702,-0.1702 0.26,-0.3756 0.26,-0.5997 0,-0.2241 -0.0453,-0.4654 -0.1343,-0.7075 l -1.0479,-2.5698 -2.0685,-5.1396 -10.0192,-0.0265 c -0.367,0.8324 -1.1275,2.8923 -2.2832,6.1602 -0.3311,0.9307 -0.5013,1.5578 -0.5013,1.8889 0,0.4568 0.1257,0.7793 0.367,0.9674 0.4029,0.3405 1.1728,0.5732 2.3105,0.7161 0.1523,0.0273 0.7786,0.1257 1.8624,0.2866 0.018,0.627 0.0265,1.0658 0.0265,1.3071 0,0.1968 -0.0179,0.3944 -0.0538,0.6091 -1.0831,0 -3.6708,-0.1523 -7.7625,-0.4474 l -1.0745,0.1788 c -1.2986,0.2147 -2.5339,0.3131 -3.6981,0.3131 z m 12.3289,-14.7379 c 4.0917,0.0539 6.5007,0.0812 7.2347,0.0812 l 0.6622,-0.0273 c -0.5279,-1.5578 -1.2088,-3.3757 -2.0498,-5.4434 -0.8418,-2.0685 -1.5227,-3.6536 -2.0419,-4.7367 z m 57.5539,-16.9938 c 0.1258,0.5013 0.2601,1.5039 0.4209,2.9993 0.1523,1.4953 0.2335,2.5877 0.2335,3.2678 0,0.2601 -0.0633,0.5826 -0.1796,0.9675 -0.752,-0.0179 -1.397,-0.0898 -1.9162,-0.2061 -1.3337,-2.0505 -2.2653,-3.3304 -2.8111,-3.859 -1.012,-0.9761 -2.3098,-1.8085 -3.9035,-2.4894 -1.1737,-0.5099 -2.5167,-0.7605 -4.0386,-0.7605 -2.9189,0 -5.4973,1.3071 -7.718,3.9308 -2.2208,2.6229 -3.3312,6.5272 -3.3312,11.7019 0,2.4269 0.4389,4.7906 1.2986,7.0824 0.8683,2.2926 2.1669,4.0831 3.8949,5.3903 1.7374,1.2985 3.7692,1.9521 6.1157,1.9521 1.1369,0 2.3457,-0.1437 3.6169,-0.4482 0.6536,-0.1343 1.1729,-0.4115 1.5758,-0.8324 0.278,-0.2866 0.4654,-0.6981 0.5552,-1.2626 0.1343,-1.0113 0.2061,-2.4535 0.2061,-4.3244 0,-1.8265 -0.0273,-3.0711 -0.0804,-3.7513 -0.1163,-0.2686 -0.242,-0.4388 -0.3498,-0.5107 -0.1164,-0.0804 -0.474,-0.2061 -1.0651,-0.3849 l -2.3371,-0.627 c -0.5013,-0.125 -0.8144,-0.2773 -0.9402,-0.4475 -0.0359,-0.2241 -0.0538,-0.3943 -0.0538,-0.5013 0,-0.2421 0.0632,-0.5825 0.1882,-1.0206 0.3139,-0.1077 0.5286,-0.1616 0.6535,-0.1616 1.9077,0 3.5545,0.0718 4.9515,0.2147 0.4927,0.0359 1.0299,0.0539 1.6031,0.0539 l 4.1455,-0.0539 1.7546,-0.0531 c 0.2147,-0.0179 0.7973,0 1.764,0.0531 0.0179,0.4568 0.0265,0.8418 0.0265,1.1557 0,0.1874 -0.0624,0.4115 -0.1874,0.6536 -0.2959,0.1788 -0.8058,0.3935 -1.5227,0.6536 -0.716,0.2686 -1.1189,0.4388 -1.2087,0.5278 -0.1343,0.1343 -0.2327,0.3584 -0.2866,0.6536 -0.0531,0.2959 -0.0804,1.3431 -0.0804,3.125 0,2.0591 -0.009,3.2952 -0.0266,3.6981 -0.0624,1.2892 -0.0984,2.0232 -0.0984,2.202 0,0.645 -0.0898,1.048 -0.2686,1.2088 -0.4833,0.4841 -2.006,1.0393 -4.5485,1.6656 -2.5432,0.6176 -5.5066,0.9315 -8.8822,0.9315 -2.3551,0 -4.4056,-0.1881 -6.1509,-0.5645 -1.7374,-0.3756 -3.2147,-0.9308 -4.4415,-1.6648 -1.6476,-0.9854 -3.0531,-2.1669 -4.226,-3.5732 -1.1728,-1.3962 -2.0411,-2.9095 -2.6237,-4.5391 -0.8058,-2.3012 -1.2087,-4.6024 -1.2087,-6.8942 0,-2.5698 0.6005,-5.1756 1.7913,-7.8172 0.8683,-1.9068 2.095,-3.6255 3.6794,-5.1568 1.5851,-1.5312 3.5638,-2.7486 5.9454,-3.6622 2.373,-0.9042 4.9694,-1.361 7.7633,-1.361 0.349,0 0.9222,0.0445 1.7007,0.1343 2.1403,0 4.1276,0.2686 5.9814,0.7972 1.853,0.5373 3.3936,1.1729 4.6195,1.9069 z m 6.2407,0 -0.0805,-2.0771 c 0.3225,-0.018 0.645,-0.0273 0.9761,-0.0273 0.8777,0 1.7905,0.0273 2.7486,0.0812 2.3098,0.1249 3.6708,0.1788 4.0738,0.1788 1.3969,0 2.7665,-0.0273 4.101,-0.0898 1.3337,-0.0625 2.5253,-0.0984 3.5724,-0.1164 1.0386,-0.0179 1.7374,-0.0359 2.1045,-0.0538 l -0.0274,0.3139 0.0539,1.5484 v 0.2155 c -0.9761,0.1343 -1.9873,0.2054 -3.0438,0.2054 -0.9761,0 -1.621,0.1976 -1.9342,0.5825 -0.2147,0.2413 -0.3139,1.2798 -0.3139,3.1156 0,0.5638 0,1.012 0.018,1.3611 l 0.0273,0.9487 -0.0453,2.4628 0.1523,2.1037 -0.107,4.5399 0.3397,6.5811 c 0.0898,1.9068 0.5107,3.4919 1.2626,4.7452 0.5646,0.9308 1.3431,1.6562 2.3637,2.1755 1.4688,0.734 2.9103,1.1018 4.3252,1.1018 1.6827,0 3.2413,-0.2155 4.7007,-0.6536 0.8504,-0.2421 1.6648,-0.645 2.4262,-1.1916 0.7613,-0.5544 1.2892,-1.0565 1.5851,-1.5125 0.6262,-0.9581 1.0651,-1.8624 1.3072,-2.6955 0.331,-1.1549 0.5013,-2.9454 0.5013,-5.3809 0,-4.2354 -0.2241,-8.9986 -0.6809,-14.2991 l -0.107,-1.3876 c -0.0539,-1.0299 -0.2421,-1.7194 -0.5732,-2.0685 -0.5638,-0.5466 -1.1908,-0.8152 -1.8889,-0.8152 l -2.4714,0.0539 -0.3404,-0.0804 0.0538,-1.9967 h 2.0685 l 5.0139,0.2148 c 1.6836,0 3.2773,-0.0805 4.7992,-0.2413 l 0.4474,0.0531 c 0.1078,0.5825 0.1616,0.9854 0.1616,1.2087 0,0.1882 -0.0359,0.4303 -0.1077,0.7075 -0.645,0.1968 -1.3337,0.3045 -2.0505,0.3404 -1.1729,0.1609 -1.8179,0.2866 -1.9342,0.3936 -0.2507,0.2155 -0.367,0.5372 -0.367,0.9675 0,0.3225 0.0179,0.7699 0.0718,1.3696 0.0539,0.4389 0.0804,1.2002 0.0804,2.2832 0,0.6091 0.009,1.0925 0.018,1.4415 0.009,0.349 0.018,0.7075 0.0359,1.0745 0.0539,1.2626 0.0984,2.5338 0.1343,3.8324 l 0.26,5.3184 c 0,3.5725 -0.1257,5.9541 -0.3677,7.1628 -0.2413,1.2088 -0.5818,2.1583 -0.9933,2.865 -0.6536,1.0479 -1.5672,2.0146 -2.758,2.8923 -1.1908,0.8863 -2.6775,1.5851 -4.4587,2.1044 -1.7819,0.5099 -3.8683,0.7699 -6.2414,0.7699 -2.7127,0 -5.0404,-0.3584 -6.9832,-1.0838 -1.9342,-0.734 -3.403,-1.6827 -4.3876,-2.865 -0.9941,-1.1814 -1.6656,-2.7127 -2.0326,-4.6023 -0.2686,-1.2978 -0.3935,-3.1516 -0.3935,-5.5597 l 0.0265,-12.518 c 0,-2.954 -0.1429,-4.6195 -0.4209,-5.0045 -0.3849,-0.5466 -1.5843,-0.8511 -3.599,-0.9222 -0.4388,0 -0.8058,-0.0273 -1.1017,-0.0718 z m 34.6872,31.7317 0.0531,-1.7819 c 0.3319,-0.0984 0.9136,-0.2327 1.7554,-0.3936 1.3431,-0.26 2.1669,-0.4927 2.4534,-0.7074 0.2866,-0.2062 0.6442,-0.7161 1.0651,-1.5219 l 5.2919,-13.8782 6.2227,-16.3137 c 0.5731,0.018 1.1283,0.0266 1.6476,0.0266 h 1.1814 l 0.2335,0.4747 4.5657,10.8071 c 1.0299,2.2918 1.9615,4.5126 2.7853,6.6795 0.823,2.1575 1.5305,3.9214 2.1216,5.2825 0.349,0.8238 0.8331,2.0505 1.4414,3.6981 0.3139,0.8949 0.7973,2.0146 1.4415,3.3577 0.3498,0.734 0.6184,1.1635 0.7879,1.2798 0.3139,0.2686 0.8332,0.4389 1.5406,0.5287 0.7067,0.0898 1.468,0.2865 2.2918,0.5997 0.0898,0.5817 0.1343,1.0119 0.1343,1.2891 0,0.1258 -0.009,0.314 -0.0265,0.5732 -1.2986,0 -2.7221,-0.0539 -4.2799,-0.1788 -1.5586,-0.1257 -2.9548,-0.1882 -4.1994,-0.1882 -1.379,0 -2.3731,0.018 -2.9907,0.0539 l -4.4587,0.2413 -1.2806,0.0538 c 0,-0.6176 0.0265,-1.1994 0.0804,-1.7639 l 2.9102,-0.6263 c 0.8684,-0.2241 1.379,-0.4029 1.5219,-0.5286 0.1703,-0.1702 0.2601,-0.3756 0.2601,-0.5997 0,-0.2241 -0.0453,-0.4654 -0.1343,-0.7075 l -1.048,-2.5698 -2.0684,-5.1396 -10.0192,-0.0265 c -0.367,0.8324 -1.1276,2.8923 -2.2833,6.1602 -0.331,0.9307 -0.5013,1.5578 -0.5013,1.8889 0,0.4568 0.1257,0.7793 0.367,0.9674 0.403,0.3405 1.1729,0.5732 2.3106,0.7161 0.1523,0.0273 0.7785,0.1257 1.8623,0.2866 0.018,0.627 0.0266,1.0658 0.0266,1.3071 0,0.1968 -0.018,0.3944 -0.0539,0.6091 -1.083,0 -3.6708,-0.1523 -7.7625,-0.4474 l -1.0745,0.1788 c -1.2985,0.2147 -2.5338,0.3131 -3.6981,0.3131 z m 12.329,-14.7379 c 4.0917,0.0539 6.5006,0.0812 7.2346,0.0812 l 0.6622,-0.0273 c -0.5279,-1.5578 -1.2088,-3.3757 -2.0498,-5.4434 -0.8417,-2.0685 -1.5226,-3.6536 -2.0419,-4.7367 z" style="fill:#006a92;fill-rule:evenodd" id="path4"/>
    </g>
    <path d="m 298.1418,96.87 c -79.3554,81.8801 -89.6783,162.7787 -47.2814,242.9275 h -69.4911 c -7.2958,-94.5319 33.4214,-175.3403 115.59,-244.3058 z" style="fill:#006a92;fill-rule:evenodd" id="path5"/>
  </g>
</svg>